<svg xmlns="http://www.w3.org/2000/svg" version="1.1" x="0" y="0" viewBox="0 0 48.7 48.7" xml:space="preserve"><style type="text/css">
	.st0{fill:#2F609C;}
	.st1{fill:#FFFFFF;}
	.st2{display:none;}
	.st3{display:inline;fill:#FFFFFF;}
	.st4{display:inline;}
</style><circle class="st0" cx="24.3" cy="24.3" r="23"/><path class="st1" d="M26.4 11.1c-2.8 0-5.1 2.3-5.1 5.1v3.1h-4.1v4.1h4.1v14.3h4.1V23.3h4.6l1-4.1h-5.6v-3.1c0-0.6 0.5-1 1-1h5.1v-4.1H26.4z"/><g class="st2"><path class="st3" d="M25.5 14.4c0 0-5 0-6.6 0 -3 0-5.8 2.3-5.8 4.9 0 2.7 2 4.8 5.1 4.8 0.2 0 0.4 0 0.6 0 -0.2 0.4-0.3 0.8-0.3 1.2 0 0.7 0.4 1.3 0.9 1.8 -0.4 0-0.7 0-1.2 0 -3.7 0-6.5 2.3-6.5 4.8 0 2.4 3.1 3.9 6.8 3.9 4.2 0 6.5-2.4 6.5-4.8 0-1.9-0.6-3.1-2.3-4.3 -0.6-0.4-1.7-1.5-1.7-2.1 0-0.7 0.2-1.1 1.3-1.9 1.1-0.9 1.9-2.1 1.9-3.5 0-1.7-0.7-3.3-2.1-3.8H24L25.5 14.4 25.5 14.4zM23.2 30.7c0.1 0.2 0.1 0.5 0.1 0.7 0 1.9-1.2 3.5-4.8 3.5 -2.5 0-4.4-1.6-4.4-3.6 0-1.9 2.3-3.5 4.8-3.5 0.6 0 1.1 0.1 1.7 0.3C21.9 29 22.9 29.6 23.2 30.7L23.2 30.7zM19.1 23.4c-1.7-0.1-3.3-1.9-3.6-4.2s0.9-4 2.6-3.9c1.7 0.1 3.3 1.9 3.6 4.1S20.8 23.5 19.1 23.4zM32.3 19.2v-4.8h-1.6v4.8h-4.8v1.6h4.8v4.8h1.6v-4.8H37v-1.6H32.3z"/></g><g class="st2"><path class="st3" d="M22.4 20h4.4v2.3h0.1c0.6-1.1 2.1-2.3 4.3-2.3 4.6 0 5.5 2.9 5.5 6.6v7.6h-4.6v-6.8c0-1.6 0-3.7-2.4-3.7 -2.4 0-2.7 1.8-2.7 3.6v6.9h-4.6V20zM14.4 20h4.8v14.3h-4.8V20zM19.2 16c0 1.3-1.1 2.4-2.4 2.4s-2.4-1.1-2.4-2.4c0-1.3 1.1-2.4 2.4-2.4S19.2 14.7 19.2 16z"/><g class="st4"/></g><g class="st2"><path class="st3" d="M36.9 16.8c-0.9 0.4-1.9 0.7-2.9 0.8 1-0.6 1.8-1.6 2.2-2.8 -1 0.6-2 1-3.2 1.2 -0.9-1-2.2-1.6-3.7-1.6 -2.8 0-5 2.2-5 5 0 0.4 0 0.8 0.1 1.1 -4.2-0.2-7.8-2.2-10.3-5.2 -0.4 0.7-0.7 1.6-0.7 2.5 0 1.7 0.9 3.3 2.2 4.2 -0.8 0-1.6-0.3-2.3-0.6 0 0 0 0 0 0.1 0 2.4 1.7 4.4 4 4.9 -0.4 0.1-0.9 0.2-1.3 0.2 -0.3 0-0.6 0-0.9-0.1 0.6 2 2.5 3.4 4.7 3.5 -1.7 1.3-3.9 2.1-6.2 2.1 -0.4 0-0.8 0-1.2-0.1 2.2 1.4 4.8 2.2 7.7 2.2 9.2 0 14.2-7.6 14.2-14.2 0-0.2 0-0.4 0-0.6C35.4 18.7 36.3 17.8 36.9 16.8L36.9 16.8z"/></g></svg>
