<svg xmlns="http://www.w3.org/2000/svg" xmlns:xlink="http://www.w3.org/1999/xlink" width="196" height="196" viewBox="0 0 196 196">
  <defs>
    <linearGradient id="linear-gradient" y1="0.5" x2="1" y2="0.5" gradientUnits="objectBoundingBox">
      <stop offset="0" stop-color="#f0a5c6"/>
      <stop offset="0.126" stop-color="#e2a6cd"/>
      <stop offset="0.716" stop-color="#a8abf0"/>
      <stop offset="1" stop-color="#92aefe"/>
    </linearGradient>
    <filter id="Path_83" x="0" y="0" width="196" height="196" filterUnits="userSpaceOnUse">
      <feOffset dx="10" dy="2" input="SourceAlpha"/>
      <feGaussianBlur stdDeviation="10" result="blur"/>
      <feFlood flood-color="#5c3c79" flood-opacity="0.761"/>
      <feComposite operator="in" in2="blur"/>
      <feComposite in="SourceGraphic"/>
    </filter>
  </defs>
  <g id="Group_137" data-name="Group 137" transform="translate(-1516 -913)">
    <g id="Group_75" data-name="Group 75" transform="translate(1394 852)">
      <g id="Group_77" data-name="Group 77">
        <g transform="matrix(1, 0, 0, 1, 122, 61)" filter="url(#Path_83)">
          <path id="Path_83-2" data-name="Path 83" d="M68,0A68,68,0,1,1,0,68,68,68,0,0,1,68,0Z" transform="translate(20 28)" fill="url(#linear-gradient)"/>
        </g>
      </g>
    </g>
    <g id="close" transform="translate(1580 984.999)">
      <path id="Path_140" data-name="Path 140" d="M28.228,23.986,47.092,5.122A3,3,0,1,0,42.85.88L23.986,19.744,5.121.88A3,3,0,0,0,.879,5.122L19.744,23.986.879,42.85a3,3,0,1,0,4.242,4.241L23.986,28.227,42.85,47.091a3,3,0,1,0,4.242-4.242Z" fill="#5c3c79"/>
    </g>
  </g>
</svg>
