<svg xmlns="http://www.w3.org/2000/svg" xmlns:xlink="http://www.w3.org/1999/xlink" width="700" height="700" viewBox="0 0 700 700">
  <defs>
    <linearGradient id="linear-gradient" y1="0.5" x2="1" y2="0.5" gradientUnits="objectBoundingBox">
      <stop offset="0" stop-color="#414e71"/>
      <stop offset="0.558" stop-color="#574078"/>
      <stop offset="1" stop-color="#6d337f"/>
    </linearGradient>
    <linearGradient id="linear-gradient-3" x1="-0.037" y1="0.99" x2="0.874" y2="0.281" gradientUnits="objectBoundingBox">
      <stop offset="0" stop-color="#fbb03b"/>
      <stop offset="0.152" stop-color="#f69e3e"/>
      <stop offset="0.454" stop-color="#eb7247"/>
      <stop offset="0.873" stop-color="#d92a55"/>
      <stop offset="1" stop-color="#d4145a"/>
    </linearGradient>
    <linearGradient id="linear-gradient-4" xlink:href="#linear-gradient"/>
    <linearGradient id="linear-gradient-8" x1="18.361" y1="0.147" x2="19.315" y2="0.147" gradientUnits="objectBoundingBox">
      <stop offset="0" stop-color="#fff77a"/>
      <stop offset="0.25" stop-color="#fcf478"/>
      <stop offset="0.43" stop-color="#f2eb74"/>
      <stop offset="0.587" stop-color="#e3db6c"/>
      <stop offset="0.732" stop-color="#ccc662"/>
      <stop offset="0.867" stop-color="#b0aa54"/>
      <stop offset="0.939" stop-color="#9e994c"/>
    </linearGradient>
    <linearGradient id="linear-gradient-9" x1="20.833" y1="-0.194" x2="21.817" y2="-0.194" xlink:href="#linear-gradient-8"/>
    <linearGradient id="linear-gradient-10" x1="1.392" y1="0.421" x2="2.368" y2="0.421" xlink:href="#linear-gradient"/>
    <linearGradient id="linear-gradient-11" x1="0" y1="0.5" x2="1" y2="0.5" xlink:href="#linear-gradient-8"/>
    <linearGradient id="linear-gradient-12" x1="2.252" y1="0.16" x2="3.252" y2="0.16" xlink:href="#linear-gradient"/>
    <linearGradient id="linear-gradient-14" y1="0.5" x2="1" y2="0.5" gradientUnits="objectBoundingBox">
      <stop offset="0" stop-color="#d34e71"/>
      <stop offset="0.076" stop-color="#c75a72"/>
      <stop offset="0.367" stop-color="#a08677"/>
      <stop offset="0.628" stop-color="#84a57b"/>
      <stop offset="0.848" stop-color="#73b97e"/>
      <stop offset="1" stop-color="#6dc07f"/>
    </linearGradient>
    <linearGradient id="linear-gradient-18" x1="16.247" y1="-1.986" x2="16.902" y2="-1.986" gradientUnits="objectBoundingBox">
      <stop offset="0.006" stop-color="#c3c9ff"/>
      <stop offset="0.193" stop-color="#b5b2eb"/>
      <stop offset="0.588" stop-color="#9376b8"/>
      <stop offset="1" stop-color="#6d337f"/>
    </linearGradient>
    <linearGradient id="linear-gradient-19" x1="12.469" y1="0.468" x2="13.123" y2="0.468" xlink:href="#linear-gradient-18"/>
    <linearGradient id="linear-gradient-23" x1="0" y1="0.5" x2="1" y2="0.5" xlink:href="#linear-gradient-18"/>
    <linearGradient id="linear-gradient-27" x1="0.5" x2="0.5" y2="1" gradientUnits="objectBoundingBox">
      <stop offset="0" stop-color="#f0a5c6"/>
      <stop offset="1" stop-color="#92aefe"/>
    </linearGradient>
  </defs>
  <g id="Group_193" data-name="Group 193" transform="translate(530 3887)">
    <g id="Group_192" data-name="Group 192">
      <g id="Group_191" data-name="Group 191">
        <g id="Group_190" data-name="Group 190">
          <g id="Group_188" data-name="Group 188">
            <g id="Group_189" data-name="Group 189">
              <g id="Group_181" data-name="Group 181" transform="translate(-530 -3887)">
                <rect id="Rectangle_32" data-name="Rectangle 32" width="700" height="699.587" transform="translate(0 0)" fill="none"/>
              </g>
              <g id="Group_184" data-name="Group 184" transform="translate(-530 -3886.587)">
                <g id="Group_122" data-name="Group 122" transform="translate(343.558 396.826) rotate(90)">
                  <rect id="Rectangle_22" data-name="Rectangle 22" width="302.481" height="6.442" rx="3.221" transform="translate(0 0)" fill="url(#linear-gradient)"/>
                </g>
                <g id="Group_183" data-name="Group 183" transform="translate(0 396.826)">
                  <g id="Group_114" data-name="Group 114" transform="translate(0 294.172)">
                    <rect id="Rectangle_23" data-name="Rectangle 23" width="302.761" height="8.589" rx="4.294" fill="url(#linear-gradient)"/>
                  </g>
                  <path id="Path_119" data-name="Path 119" d="M2603.236,2877.945c-10.579,0-19.4-8.524-21.2-19.718h-3.49c-28.245,0-55.257,19.737-63.631,48.4-1.922,6.575,0,14.73,0,22.335v19.266c0,13.486,9.87,24.457,22,24.457h3.105v-53.488c0-10.034,7.343-18.2,16.371-18.2h93.676c9.028,0,12.986,8.543,12.986,18.578v45.653l3.385,7.454h3.106c12.132,0,22-10.971,22-24.457v-19.266c0-39-28.546-70.731-63.632-70.731h-3.49C2622.63,2869.421,2613.815,2877.945,2603.236,2877.945Z" transform="translate(-2438.708 -2686.066)" fill="url(#linear-gradient-3)"/>
                  <path id="Path_120" data-name="Path 120" d="M2670.941,2846.584h-3.061v4.548a22.048,22.048,0,0,1-.333,3.79h3.393c34.113,0,61.866,28.487,61.866,63.5v17.3c0,12.107-9.6,21.957-21.391,21.957H2708.4v7.612c0,.243-.008.485-.017.726h3.037c16.274,0,29.515-13.59,29.515-30.294v-17.3C2740.931,2878.81,2709.533,2846.584,2670.941,2846.584Z" transform="translate(-2482.336 -2679.398)" fill="url(#linear-gradient-4)"/>
                  <path id="Path_121" data-name="Path 121" d="M2575.112,2854.921h3.483a21.547,21.547,0,0,1-.342-3.79v-4.548h-3.142a71.919,71.919,0,0,0-71.838,71.838v17.3a30.329,30.329,0,0,0,30.295,30.294h3.117c-.01-.241-.018-.483-.018-.726v-7.612h-3.1a21.981,21.981,0,0,1-21.957-21.957v-17.3A63.573,63.573,0,0,1,2575.112,2854.921Z" transform="translate(-2435.184 -2679.398)" fill="url(#linear-gradient-4)"/>
                  <g id="Group_115" data-name="Group 115" transform="translate(101 214.348)">
                    <path id="Path_122" data-name="Path 122" d="M2563.749,2916.068l-7.878,9.964v63.136l16.7,8.249h92.659l8.267-4.286v-67.1l-8.267-9.964Z" transform="translate(-2551.604 -2913.051)" fill="#ddd"/>
                    <path id="Path_123" data-name="Path 123" d="M2659.731,2911.855H2566.25a16.355,16.355,0,0,0-16.337,16.336v55.634c0,.243.008.485.018.725a16.356,16.356,0,0,0,16.319,15.611h93.481a16.356,16.356,0,0,0,16.32-15.611c.01-.241.018-.483.018-.725v-55.634A16.355,16.355,0,0,0,2659.731,2911.855Zm8.112,68.526v3.443c0,.245-.016.486-.037.725a8.119,8.119,0,0,1-8.074,7.385H2566.25a8.117,8.117,0,0,1-8.073-7.385c-.022-.239-.038-.48-.038-.725v-55.634a8.118,8.118,0,0,1,8.11-8.109h93.481a8.12,8.12,0,0,1,8.112,8.109v52.19Z" transform="translate(-2549.912 -2911.855)" fill="url(#linear-gradient-4)"/>
                  </g>
                  <g id="Group_116" data-name="Group 116" transform="translate(142.89 140.214)">
                    <path id="Path_124" data-name="Path 124" d="M2616.08,2817.28v29.32l13.4,13.985h6.7l8.861-4.51,5.059-38.794Z" transform="translate(-2610.289 -2811.792)" fill="#e0e0e0"/>
                    <path id="Path_125" data-name="Path 125" d="M2641.825,2809.615h-24.682a9.162,9.162,0,0,0-9.151,9.151v21.866a21.493,21.493,0,0,0,42.985,0v-21.866A9.161,9.161,0,0,0,2641.825,2809.615Zm-12.341,44.283a13.292,13.292,0,0,1-13.265-13.266v-21.866a.925.925,0,0,1,.924-.924h24.682a.925.925,0,0,1,.925.924v21.866a13.29,13.29,0,0,1-13.266,13.266Z" transform="translate(-2607.992 -2809.615)" fill="url(#linear-gradient-4)"/>
                  </g>
                  <path id="Path_126" data-name="Path 126" d="M2699.574,2698.765q-.018-.6-.066-1.186a37.449,37.449,0,0,1-9.1,14.329l10,15.365Z" transform="translate(-2488.608 -2637.977)" fill="url(#linear-gradient-8)"/>
                  <g id="Group_117" data-name="Group 117" transform="translate(87.219 0)">
                    <ellipse id="Ellipse_11" data-name="Ellipse 11" cx="9.921" cy="9.921" rx="9.921" ry="9.921" transform="translate(83.495 104.283) rotate(-24.188)" fill="#e0e0e0"/>
                    <ellipse id="Ellipse_12" data-name="Ellipse 12" cx="9.921" cy="9.921" rx="9.921" ry="9.921" transform="translate(44.65 105.428) rotate(-24.188)" fill="#e0e0e0"/>
                    <path id="Path_127" data-name="Path 127" d="M2626.6,2728.9c-1.877.055-3.881.068-6.024.031-12.437-.216-23.177-.4-32.443-2.125q-2.046-.38-3.979-.861l-15.834,27.776.031,1.039a49.021,49.021,0,0,0,50.387,47.5h0a49.022,49.022,0,0,0,47.5-50.388l-.031-1.039-17.2-26.424C2644.607,2726.655,2637.909,2728.563,2626.6,2728.9Zm32.15,25.6a4.226,4.226,0,0,1-4.1,4.348,4.021,4.021,0,0,1-.525-.018,16.9,16.9,0,0,1-32.719,1l-6.133.18a16.9,16.9,0,0,1-32.721.931,4.1,4.1,0,0,1-.524.049,4.226,4.226,0,1,1-.249-8.448,4.1,4.1,0,0,1,.524.019,16.9,16.9,0,0,1,32.72-1l6.133-.182a16.9,16.9,0,0,1,32.721-.93,4.221,4.221,0,0,1,4.872,4.051Z" transform="translate(-2541.031 -2645.846)" fill="#e0e0e0"/>
                    <path id="Path_128" data-name="Path 128" d="M2567.442,2735.443l8.25-14.472a48.613,48.613,0,0,1-8.819-4.782Z" transform="translate(-2540.619 -2643.512)" fill="url(#linear-gradient-9)"/>
                    <path id="Path_129" data-name="Path 129" d="M2655.918,2657.083l-.035-1.164a35.067,35.067,0,0,0-2.4-13.138,37.157,37.157,0,0,0-11.934-15.553c-5.982-4.885-13.178-8.161-22-10.02-12.463-2.626-21.535-1.164-31.139.383-3.085.5-6.274,1.01-9.634,1.39a125.508,125.508,0,0,1-43.292-3.033l-5.275-1.262.667,22.629,0,.1a77.254,77.254,0,0,0,3.691,19.73,60.46,60.46,0,0,0,13.37,22.9l1.291,43.794a57.269,57.269,0,0,0,114.488-3.374l-1.342-45.489A30.43,30.43,0,0,0,2655.918,2657.083Zm-106.7,11.384c-7.675-11.185-9.632-23.868-10.053-31.449l-.349-11.831a131.635,131.635,0,0,0,40.882,2.044c3.556-.4,6.844-.93,10.024-1.443l1.515-.243-.048-.019c7.646-1.4,15.551-2.192,19.948-1.852a50.942,50.942,0,0,1,10.823,1.762,39.722,39.722,0,0,1,15.5,7.823A33.508,33.508,0,0,1,2647,2645.6a31.9,31.9,0,0,1,1.666,4.764,32.883,32.883,0,0,1,1,6.022,33.731,33.731,0,0,1-.106,6.035c-.044.4-.089.756-.134,1.075-.156,1.1-.335,2.044-.37,2.222a33.275,33.275,0,0,1-4.488,10.983c-.233.367-.5.784-.8,1.242a31.02,31.02,0,0,1-3.067,3.941q-.269.29-.555.58a24.265,24.265,0,0,1-2.551,2.258,22.95,22.95,0,0,1-1.891,1.309q-.8.5-1.616.911c-5.454,2.788-11.329,2.94-19.173,3.141-1.812.047-1.253.128-3.481.109-3.067-.027-9.468-.667-13.064-.98a123.911,123.911,0,0,1-20.741-1.963c-1.439-.3-2.834-.637-4.193-1.027-1.374-.4-2.709-.842-4.01-1.348a40.76,40.76,0,0,1-12.166-7.382c-.361-.313-.712-.632-1.059-.951a47.187,47.187,0,0,1-3.739-3.872A48.4,48.4,0,0,1,2549.223,2668.467Zm7.806,38.152-.568-19.255a48.531,48.531,0,0,0,8.819,4.783Zm98.389,14.093a49.021,49.021,0,0,1-47.5,50.388h0a49.02,49.02,0,0,1-50.387-47.5l-.031-1.039,15.835-27.776q1.935.479,3.979.861c9.266,1.722,20.006,1.908,32.444,2.125,2.142.037,4.146.026,6.023-.03,11.3-.333,18-2.242,22.406-4.49l17.2,26.425Zm-.5-16.978-10-15.365a37.426,37.426,0,0,0,9.1-14.329q.048.588.067,1.185Z" transform="translate(-2530.206 -2614.687)" fill="url(#linear-gradient-10)"/>
                    <path id="Path_130" data-name="Path 130" d="M2649.966,2663.838l-.69.02q.057.178.11.357Z" transform="translate(-2564.02 -2628.645)" fill="#c48c2a"/>
                    <path id="Path_131" data-name="Path 131" d="M2653.084,2659.924a32.79,32.79,0,0,0-1-6.022,32.073,32.073,0,0,0-1.665-4.765,33.52,33.52,0,0,0-9.531-12.346,39.721,39.721,0,0,0-15.5-7.823,50.959,50.959,0,0,0-10.822-1.763c-4.4-.34-12.3.451-19.948,1.853l.048.019-1.516.243c-3.179.513-6.468,1.042-10.024,1.443a131.662,131.662,0,0,1-40.883-2.045l.35,11.831c.42,7.581,2.378,20.265,10.051,31.449a48.43,48.43,0,0,0,3.237,4.206,47.11,47.11,0,0,0,3.738,3.872c.348.321.7.639,1.06.952a40.762,40.762,0,0,0,12.165,7.382c1.3.507,2.637.953,4.011,1.348s2.754.731,4.193,1.027a123.9,123.9,0,0,0,20.741,1.963c3.6.313,10,.953,13.063.98,2.229.019,1.669-.063,3.482-.11,7.844-.2,13.719-.352,19.172-3.14q.813-.416,1.616-.912a22.973,22.973,0,0,0,1.891-1.309,24.372,24.372,0,0,0,2.551-2.256c.192-.194.376-.387.555-.581a31.074,31.074,0,0,0,3.067-3.941c.3-.457.572-.875.8-1.242a33.276,33.276,0,0,0,4.488-10.982c.035-.178.215-1.118.371-2.222.044-.318.09-.679.133-1.075A33.7,33.7,0,0,0,2653.084,2659.924Zm-33.515-6.511-.58.377c-.036-.118-.072-.239-.11-.357Z" transform="translate(-2533.624 -2618.22)" fill="url(#linear-gradient-11)"/>
                    <path id="Path_132" data-name="Path 132" d="M2640.856,2743.7a16.9,16.9,0,0,0-15.983,13.147l-6.132.181a16.9,16.9,0,0,0-32.719,1,4.166,4.166,0,0,0-.525-.019,4.226,4.226,0,0,0,.248,8.448,4.141,4.141,0,0,0,.523-.05,16.9,16.9,0,0,0,32.721-.931l6.133-.18a16.9,16.9,0,0,0,32.719-1,4.157,4.157,0,0,0,.525.017,4.226,4.226,0,1,0-.249-8.448,4.286,4.286,0,0,0-.523.049A16.9,16.9,0,0,0,2640.856,2743.7Zm-38.055,27.952a9.922,9.922,0,1,1,9.624-10.21A9.922,9.922,0,0,1,2602.8,2771.655Zm38.845-1.147a9.92,9.92,0,1,1,9.624-10.208A9.919,9.919,0,0,1,2641.646,2770.508Z" transform="translate(-2544.743 -2651.323)" fill="url(#linear-gradient-12)"/>
                  </g>
                  <path id="Path_137" data-name="Path 137" d="M53.028,5.8a7.314,7.314,0,0,0,2.2-5.8,10.046,10.046,0,0,0-6.219,2.754A7.012,7.012,0,0,0,46.764,8.38,8.383,8.383,0,0,0,53.028,5.8Zm4.521,14.71a8.538,8.538,0,0,1,4.05-7.18A8.741,8.741,0,0,0,54.738,9.6c-2.924-.3-5.7,1.727-7.185,1.727s-3.765-1.688-6.19-1.642A9.173,9.173,0,0,0,33.6,14.414c-3.311,5.772-.849,14.323,2.378,19.006,1.577,2.292,3.456,4.864,5.922,4.771,2.381-.093,3.278-1.544,6.151-1.544s3.678,1.544,6.192,1.5c2.558-.047,4.177-2.336,5.741-4.636a20.83,20.83,0,0,0,2.6-5.362A8.336,8.336,0,0,1,57.549,20.514Z" transform="translate(116.971 239.348)" fill="#c3c5c6"/>
                </g>
                <g id="Group_186" data-name="Group 186" transform="translate(377.914 396.826)">
                  <g id="Group_109" data-name="Group 109" transform="translate(0 294.172)">
                    <rect id="Rectangle_22-2" data-name="Rectangle 22" width="322.086" height="8.589" rx="4.294" fill="url(#linear-gradient)"/>
                  </g>
                  <path id="Path_106" data-name="Path 106" d="M3051.6,3004.813h100.973c9.731,0,17.647,7.355,17.647,16.4v46.519c9.938-4.868,16.731-14.559,16.731-25.7V3000.8c0-18.368-16.084-33.312-35.854-33.312h-98.022c-19.77,0-35.853,14.944-35.853,33.312v41.227c0,11.143,10.37,20.834,20.308,25.7v-46.519C3037.533,3012.167,3041.873,3004.813,3051.6,3004.813Z" transform="translate(-2925.939 -2791.188)" fill="url(#linear-gradient-14)"/>
                  <path id="Path_107" data-name="Path 107" d="M3144.923,2956.479h-95.487c-23.832,0-43.22,18.014-43.22,40.156V3036.8c0,15.209,10.21,28.236,24.593,33.5v-8.46c-9.68-4.742-16.3-14.184-16.3-25.038v-40.161c0-17.893,15.668-32.45,34.926-32.45h95.487c19.258,0,34.927,14.557,34.927,32.45V3036.8c0,10.854-6.618,20.295-16.3,25.037l-2.757,4.292v5.609c14.382-5.263,27.348-19.729,27.348-34.938v-40.161C3188.143,2974.493,3168.754,2956.479,3144.923,2956.479Z" transform="translate(-2918.698 -2786.739)" fill="url(#linear-gradient-4)"/>
                  <path id="Path_108" data-name="Path 108" d="M3159.734,3030.922H3059.081c-4.815,0-8.732,3.639-8.732,8.113v55.653a7.489,7.489,0,0,0,.169,1.575,8.6,8.6,0,0,0,8.563,6.539h100.653a8.607,8.607,0,0,0,8.565-6.539,7.641,7.641,0,0,0,.167-1.575v-55.653C3168.466,3034.562,3164.549,3030.922,3159.734,3030.922Z" transform="translate(-2933.263 -2809.574)" fill="#ddd"/>
                  <path id="Path_109" data-name="Path 109" d="M3157.1,3019.432H3056.449c-9.7,0-17.591,7.331-17.591,16.344v55.653c0,9.011,7.891,16.343,17.591,16.343H3157.1c9.7,0,17.591-7.331,17.591-16.343v-55.653C3174.693,3026.763,3166.8,3019.432,3157.1,3019.432Zm0,80.109H3056.449a8.6,8.6,0,0,1-8.564-6.538,7.573,7.573,0,0,1-.168-1.574v-55.653c0-4.474,3.917-8.114,8.732-8.114H3157.1c4.815,0,8.733,3.64,8.733,8.114v55.653a7.563,7.563,0,0,1-.168,1.574A8.606,8.606,0,0,1,3157.1,3099.542Z" transform="translate(-2930.273 -2805.926)" fill="url(#linear-gradient-4)"/>
                  <g id="Group_110" data-name="Group 110" transform="translate(152.096 134.145)">
                    <path id="Path_110" data-name="Path 110" d="M3103.194,2911.8v29.33l14.433,13.99h7.216l9.542-4.511,5.446-38.809Z" transform="translate(-3096.959 -2906.311)" fill="#e0e0e0"/>
                    <path id="Path_111" data-name="Path 111" d="M3131.536,2904.135H3104.96c-5.433,0-9.853,4.105-9.853,9.154v21.876a20.039,20.039,0,0,0,.368,3.791c1.935,10.052,11.406,17.709,22.773,17.709s20.839-7.657,22.773-17.709a19.979,19.979,0,0,0,.368-3.791v-21.876C3141.389,2908.241,3136.969,2904.135,3131.536,2904.135Zm-13.287,44.3a14.206,14.206,0,0,1-13.682-9.479,12.4,12.4,0,0,1-.6-3.791v-21.876a.963.963,0,0,1,1-.924h26.575a.962.962,0,0,1,1,.924v21.876a12.382,12.382,0,0,1-.6,3.791A14.2,14.2,0,0,1,3118.248,2948.435Z" transform="translate(-3095.107 -2904.135)" fill="url(#linear-gradient-4)"/>
                  </g>
                  <path id="Path_112" data-name="Path 112" d="M3058.64,2804.887l-4.079,27.519,2.925,29.083,18.7,22.693,33.138,9.8,26.836-5.423,25.318-23.974,2.711-22.312v-27.456l-13.129-18.16-50.918-23.51Z" transform="translate(-2933.803 -2729.09)" fill="#e0e0e0"/>
                  <path id="Path_113" data-name="Path 113" d="M3059.3,2841.549q.019.626.09,1.24a42.733,42.733,0,0,1,14.655-15.114l-15.692-15.959Z" transform="translate(-2933.914 -2741.826)" fill="url(#linear-gradient-18)"/>
                  <path id="Path_114" data-name="Path 114" d="M3188.065,2818.7q-.019-.624-.091-1.24a42.734,42.734,0,0,1-14.655,15.117l15.691,15.956Z" transform="translate(-2961.579 -2743.558)" fill="url(#linear-gradient-19)"/>
                  <g id="Group_111" data-name="Group 111" transform="translate(116.23 39.178)">
                    <path id="Path_115" data-name="Path 115" d="M3107.982,2894.611c-32.686,0-59.279-24.707-59.279-55.076v-18.12c0-30.37,26.593-55.078,59.279-55.078s59.278,24.708,59.278,55.078v18.12C3167.26,2869.9,3140.668,2894.611,3107.982,2894.611Zm0-120.288c-27.948,0-50.684,21.125-50.684,47.092v18.12c0,25.967,22.736,47.093,50.684,47.093s50.684-21.126,50.684-47.093v-18.12C3158.667,2795.448,3135.93,2774.323,3107.982,2774.323Z" transform="translate(-3048.704 -2766.337)" fill="url(#linear-gradient)"/>
                  </g>
                  <g id="Group_112" data-name="Group 112" transform="translate(117.111 43.502)">
                    <path id="Path_116" data-name="Path 116" d="M3053.067,2846.48a4.276,4.276,0,0,1-2.11-.552,3.622,3.622,0,0,1-1.352-5.184l43.686-66.562a4.239,4.239,0,0,1,5.579-1.256,3.62,3.62,0,0,1,1.351,5.183l-43.685,66.561A4.13,4.13,0,0,1,3053.067,2846.48Z" transform="translate(-3049.011 -2772.374)" fill="url(#linear-gradient)"/>
                  </g>
                  <g id="Group_113" data-name="Group 113" transform="translate(182.263 45.932)">
                    <path id="Path_117" data-name="Path 117" d="M3182.731,2849.479a4.132,4.132,0,0,1-3.469-1.809l-43.684-66.561a3.62,3.62,0,0,1,1.351-5.183,4.24,4.24,0,0,1,5.579,1.256l43.686,66.562a3.623,3.623,0,0,1-1.353,5.184A4.273,4.273,0,0,1,3182.731,2849.479Z" transform="translate(-3134.982 -2775.374)" fill="url(#linear-gradient-4)"/>
                  </g>
                  <path id="Path_118" data-name="Path 118" d="M3118.949,2716.12,3081.2,2738.3l-22.564,24.239-4.079,14.44,4.079,11.733,14.538,9.928,34.947-2.351,10.824,2.351h18.872l23.04-8.688,3.327-15.551v-13.41l-6.107-14.44-15.618-13.409Z" transform="translate(-2933.803 -2712.912)" fill="url(#linear-gradient-23)"/>
                  <g id="Group_119" data-name="Group 119" transform="translate(116.946)">
                    <g id="Group_118" data-name="Group 118" transform="translate(0)">
                      <path id="Path_135" data-name="Path 135" d="M3132.027,2802.719c-13.083,0-25.571-3.68-29.75-5.044q-3.248.94-6.963,1.667c-18.583,3.6-35.118-.72-42.127-11-3.765-5.523-7.861-17.523,7.022-35.836,24.329-29.937,55.429-40.229,56.742-40.653a4.444,4.444,0,0,1,3.376.269c2.2,1.132,53.882,28.142,47.861,64.264-1.674,10.041-6.667,17.356-14.839,21.74C3146.977,2801.549,3139.407,2802.719,3132.027,2802.719Zm-17.784-9.863c9.921,2.2,24.819,4.027,34.961-1.423,5.96-3.2,9.482-8.511,10.767-16.228,4.6-27.579-33.535-50.661-42.021-55.424a128.674,128.674,0,0,0-51.108,37.382c-8.792,10.819-11.148,20.424-6.632,27.046,5.058,7.417,18.482,10.458,33.408,7.569a68.675,68.675,0,0,0,7.269-1.806q.141-.048.283-.089c20.548-6.476,23.242-19.5,23.356-20.107a4.15,4.15,0,0,1,4.778-3.163,3.893,3.893,0,0,1,3.431,4.389C3132.621,2771.685,3130.306,2784.153,3114.243,2792.856Z" transform="translate(-3049.661 -2711.641)" fill="url(#linear-gradient-4)"/>
                    </g>
                  </g>
                  <ellipse id="Ellipse_13" data-name="Ellipse 13" cx="6.792" cy="6.311" rx="6.792" ry="6.311" transform="translate(150.983 104.363)" fill="url(#linear-gradient-4)"/>
                  <ellipse id="Ellipse_14" data-name="Ellipse 14" cx="6.792" cy="6.311" rx="6.792" ry="6.311" transform="translate(188.573 104.363)" fill="url(#linear-gradient-4)"/>
                  <g id="apple" transform="translate(161.086 238.348)">
                    <path id="Path_137-2" data-name="Path 137" d="M53.028,5.8a7.314,7.314,0,0,0,2.2-5.8,10.046,10.046,0,0,0-6.219,2.754A7.012,7.012,0,0,0,46.764,8.38,8.383,8.383,0,0,0,53.028,5.8Zm4.521,14.71a8.538,8.538,0,0,1,4.05-7.18A8.741,8.741,0,0,0,54.738,9.6c-2.924-.3-5.7,1.727-7.185,1.727s-3.765-1.688-6.19-1.642A9.173,9.173,0,0,0,33.6,14.414c-3.311,5.772-.849,14.323,2.378,19.006,1.577,2.292,3.456,4.864,5.922,4.771,2.381-.093,3.278-1.544,6.151-1.544s3.678,1.544,6.192,1.5c2.558-.047,4.177-2.336,5.741-4.636a20.83,20.83,0,0,0,2.6-5.362A8.336,8.336,0,0,1,57.549,20.514Z" transform="translate(-32.029)" fill="#c3c5c6"/>
                  </g>
                </g>
                <g id="Group_126" data-name="Group 126" transform="translate(282.775 264.485)">
                  <ellipse id="Ellipse_15" data-name="Ellipse 15" cx="10.993" cy="10.993" rx="10.993" ry="10.993" transform="translate(173.018 186.3)" fill="url(#linear-gradient-27)"/>
                  <ellipse id="Ellipse_16" data-name="Ellipse 16" cx="15.39" cy="15.39" rx="15.39" ry="15.39" transform="translate(131.649 155.519)" fill="url(#linear-gradient-27)"/>
                </g>
              </g>
            </g>
          </g>
        </g>
      </g>
    </g>
  </g>
</svg>
