<svg xmlns="http://www.w3.org/2000/svg" xmlns:xlink="http://www.w3.org/1999/xlink" width="700" height="700" viewBox="0 0 700 700">
  <defs>
    <linearGradient id="linear-gradient" y1="0.5" x2="1" y2="0.5" gradientUnits="objectBoundingBox">
      <stop offset="0" stop-color="#414e71"/>
      <stop offset="0.558" stop-color="#574078"/>
      <stop offset="1" stop-color="#6d337f"/>
    </linearGradient>
    <linearGradient id="linear-gradient-2" x1="-0.037" y1="0.99" x2="0.874" y2="0.281" gradientUnits="objectBoundingBox">
      <stop offset="0" stop-color="#fbb03b"/>
      <stop offset="0.152" stop-color="#f69e3e"/>
      <stop offset="0.454" stop-color="#eb7247"/>
      <stop offset="0.873" stop-color="#d92a55"/>
      <stop offset="1" stop-color="#d4145a"/>
    </linearGradient>
    <linearGradient id="linear-gradient-3" xlink:href="#linear-gradient"/>
    <linearGradient id="linear-gradient-7" x1="18.361" y1="0.147" x2="19.315" y2="0.147" gradientUnits="objectBoundingBox">
      <stop offset="0" stop-color="#fff77a"/>
      <stop offset="0.25" stop-color="#fcf478"/>
      <stop offset="0.43" stop-color="#f2eb74"/>
      <stop offset="0.587" stop-color="#e3db6c"/>
      <stop offset="0.732" stop-color="#ccc662"/>
      <stop offset="0.867" stop-color="#b0aa54"/>
      <stop offset="0.939" stop-color="#9e994c"/>
    </linearGradient>
    <linearGradient id="linear-gradient-8" x1="20.833" y1="-0.194" x2="21.817" y2="-0.194" xlink:href="#linear-gradient-7"/>
    <linearGradient id="linear-gradient-9" x1="1.392" y1="0.421" x2="2.368" y2="0.421" xlink:href="#linear-gradient"/>
    <linearGradient id="linear-gradient-10" x1="0" y1="0.5" x2="1" y2="0.5" xlink:href="#linear-gradient-7"/>
    <linearGradient id="linear-gradient-11" x1="2.252" y1="0.16" x2="3.252" y2="0.16" xlink:href="#linear-gradient"/>
    <linearGradient id="linear-gradient-13" y1="0.5" x2="1" y2="0.5" gradientUnits="objectBoundingBox">
      <stop offset="0" stop-color="#d34e71"/>
      <stop offset="0.076" stop-color="#c75a72"/>
      <stop offset="0.367" stop-color="#a08677"/>
      <stop offset="0.628" stop-color="#84a57b"/>
      <stop offset="0.848" stop-color="#73b97e"/>
      <stop offset="1" stop-color="#6dc07f"/>
    </linearGradient>
    <linearGradient id="linear-gradient-17" x1="16.247" y1="-1.986" x2="16.902" y2="-1.986" gradientUnits="objectBoundingBox">
      <stop offset="0.006" stop-color="#c3c9ff"/>
      <stop offset="0.193" stop-color="#b5b2eb"/>
      <stop offset="0.588" stop-color="#9376b8"/>
      <stop offset="1" stop-color="#6d337f"/>
    </linearGradient>
    <linearGradient id="linear-gradient-18" x1="12.469" y1="0.468" x2="13.123" y2="0.468" xlink:href="#linear-gradient-17"/>
    <linearGradient id="linear-gradient-22" x1="0" y1="0.5" x2="1" y2="0.5" xlink:href="#linear-gradient-17"/>
    <linearGradient id="linear-gradient-27" x1="0.5" x2="0.5" y2="1" gradientUnits="objectBoundingBox">
      <stop offset="0" stop-color="#f0a5c6"/>
      <stop offset="1" stop-color="#92aefe"/>
    </linearGradient>
    <linearGradient id="linear-gradient-29" y1="0.5" x2="1" y2="0.5" gradientUnits="objectBoundingBox">
      <stop offset="0" stop-color="#f0a5c6"/>
      <stop offset="1" stop-color="#92aefe"/>
      <stop offset="1" stop-color="#6d337f"/>
    </linearGradient>
  </defs>
  <g id="Group_205" data-name="Group 205" transform="translate(3377 -2872)">
    <g id="Group_204" data-name="Group 204">
      <g id="Group_203" data-name="Group 203">
        <g id="Group_202" data-name="Group 202">
          <rect id="Rectangle_34" data-name="Rectangle 34" width="700" height="700" transform="translate(-3377 2872)" fill="none"/>
          <g id="Group_201" data-name="Group 201" transform="translate(-3846 1484)">
            <g id="Group_123" data-name="Group 123" transform="translate(3 -77)">
              <g id="Group_120" data-name="Group 120" transform="translate(502 1756)">
                <g id="Group_114" data-name="Group 114" transform="translate(0 231.538)">
                  <rect id="Rectangle_23" data-name="Rectangle 23" width="238" height="6.462" rx="3.231" fill="url(#linear-gradient)"/>
                </g>
                <path id="Path_119" data-name="Path 119" d="M2584.148,2872.133a16.907,16.907,0,0,1-16.614-13.9H2564.8a49.936,49.936,0,0,0-49.879,49.879v13.587a17.266,17.266,0,0,0,17.247,17.247h2.435v-37.72a12.847,12.847,0,0,1,12.833-12.832h73.43a12.847,12.847,0,0,1,12.833,12.832v37.72h2.434a17.266,17.266,0,0,0,17.247-17.247v-13.587a49.936,49.936,0,0,0-49.879-49.879h-2.736A16.906,16.906,0,0,1,2584.148,2872.133Z" transform="translate(-2454.945 -2719.888)" fill="url(#linear-gradient-2)"/>
                <path id="Path_120" data-name="Path 120" d="M2670.284,2846.584h-2.468v3.572a16.906,16.906,0,0,1-.268,2.977h2.736a49.936,49.936,0,0,1,49.879,49.879V2916.6a17.266,17.266,0,0,1-17.247,17.247h-2.434v5.979c0,.191-.007.381-.014.57h2.448a23.823,23.823,0,0,0,23.8-23.8v-13.587A56.492,56.492,0,0,0,2670.284,2846.584Z" transform="translate(-2521.882 -2714.793)" fill="url(#linear-gradient-3)"/>
                <path id="Path_121" data-name="Path 121" d="M2559.7,2853.133h2.736a16.929,16.929,0,0,1-.268-2.977v-3.572H2559.7a56.492,56.492,0,0,0-56.428,56.428V2916.6a23.823,23.823,0,0,0,23.8,23.8h2.448c-.008-.189-.014-.379-.014-.57v-5.979h-2.434a17.266,17.266,0,0,1-17.247-17.247v-13.587A49.935,49.935,0,0,1,2559.7,2853.133Z" transform="translate(-2449.735 -2714.793)" fill="url(#linear-gradient-3)"/>
                <g id="Group_115" data-name="Group 115" transform="translate(79.666 168.501)">
                  <path id="Path_122" data-name="Path 122" d="M2562.06,2916.068l-6.188,7.826v49.593l13.115,6.479h72.783l6.493-3.366v-52.706l-6.493-7.826Z" transform="translate(-2552.52 -2913.698)" fill="#ddd"/>
                  <path id="Path_123" data-name="Path 123" d="M2636.174,2911.855h-73.429a12.847,12.847,0,0,0-12.833,12.832v43.7c0,.191.006.381.015.57a12.847,12.847,0,0,0,12.818,12.262h73.429a12.848,12.848,0,0,0,12.819-12.262c.008-.189.014-.379.014-.57v-43.7A12.847,12.847,0,0,0,2636.174,2911.855Zm6.371,53.827v2.7c0,.192-.012.382-.029.57a6.377,6.377,0,0,1-6.342,5.8h-73.429a6.376,6.376,0,0,1-6.341-5.8c-.017-.188-.029-.377-.029-.57v-43.7a6.377,6.377,0,0,1,6.371-6.37h73.429a6.377,6.377,0,0,1,6.371,6.37v40.995Z" transform="translate(-2549.912 -2911.855)" fill="url(#linear-gradient-3)"/>
                </g>
                <g id="Group_116" data-name="Group 116" transform="translate(112.34 110.399)">
                  <path id="Path_124" data-name="Path 124" d="M2616.08,2817.28v23.03l10.529,10.985h5.264l6.96-3.543,3.974-30.472Z" transform="translate(-2611.531 -2812.969)" fill="#e0e0e0"/>
                  <path id="Path_125" data-name="Path 125" d="M2634.568,2809.615H2615.18a7.2,7.2,0,0,0-7.188,7.188v17.176a16.882,16.882,0,0,0,33.764,0V2816.8A7.2,7.2,0,0,0,2634.568,2809.615Zm-9.693,34.784a10.439,10.439,0,0,1-10.42-10.419V2816.8a.727.727,0,0,1,.725-.726h19.388a.727.727,0,0,1,.726.726v17.176a10.438,10.438,0,0,1-10.42,10.419Z" transform="translate(-2607.992 -2809.615)" fill="url(#linear-gradient-3)"/>
                </g>
                <path id="Path_126" data-name="Path 126" d="M2697.609,2698.51q-.014-.468-.052-.931a29.4,29.4,0,0,1-7.145,11.255l7.856,12.069Z" transform="translate(-2531.77 -2650.66)" fill="url(#linear-gradient-7)"/>
                <g id="Group_117" data-name="Group 117" transform="translate(68.604)">
                  <circle id="Ellipse_11" data-name="Ellipse 11" cx="7.793" cy="7.793" r="7.793" transform="translate(65.585 81.914) rotate(-24.188)" fill="#e0e0e0"/>
                  <circle id="Ellipse_12" data-name="Ellipse 12" cx="7.793" cy="7.793" r="7.793" transform="translate(35.072 82.813) rotate(-24.188)" fill="#e0e0e0"/>
                  <path id="Path_127" data-name="Path 127" d="M2614.1,2727.933c-1.475.044-3.049.053-4.732.024-9.769-.17-18.205-.316-25.484-1.669q-1.607-.3-3.126-.677l-12.438,21.818.024.816a38.506,38.506,0,0,0,39.579,37.313h0a38.506,38.506,0,0,0,37.312-39.579l-.024-.816-13.512-20.756C2628.244,2726.173,2622.982,2727.672,2614.1,2727.933Zm25.253,20.105a3.314,3.314,0,0,1-3.633,3.4,13.276,13.276,0,0,1-25.7.784l-4.817.142a13.276,13.276,0,0,1-25.7.731,3.319,3.319,0,1,1-.606-6.6,3.249,3.249,0,0,1,.412.015,13.276,13.276,0,0,1,25.7-.784l4.817-.143a13.276,13.276,0,0,1,25.7-.731,3.315,3.315,0,0,1,3.827,3.182Z" transform="translate(-2546.885 -2662.698)" fill="#e0e0e0"/>
                  <path id="Path_128" data-name="Path 128" d="M2567.32,2731.313l6.48-11.368a38.139,38.139,0,0,1-6.927-3.757Z" transform="translate(-2546.251 -2659.102)" fill="url(#linear-gradient-8)"/>
                  <path id="Path_129" data-name="Path 129" d="M2628.952,2647.988l-.027-.914a27.541,27.541,0,0,0-1.888-10.319,29.179,29.179,0,0,0-9.375-12.217,39.437,39.437,0,0,0-17.28-7.87c-9.789-2.063-16.915-.915-24.46.3-2.423.39-4.928.794-7.567,1.092a98.606,98.606,0,0,1-34.006-2.382l-4.144-.991.524,17.775,0,.082a60.678,60.678,0,0,0,2.9,15.5,47.487,47.487,0,0,0,10.5,17.986l1.014,34.4a44.984,44.984,0,0,0,89.929-2.65l-1.053-35.73A23.905,23.905,0,0,0,2628.952,2647.988Zm-83.808,8.942c-6.028-8.785-7.565-18.748-7.9-24.7l-.274-9.293a103.416,103.416,0,0,0,32.113,1.606c2.793-.315,5.376-.731,7.874-1.134l1.19-.191-.038-.015c6.006-1.1,12.215-1.721,15.669-1.455a40.008,40.008,0,0,1,8.5,1.385,31.191,31.191,0,0,1,12.178,6.144,26.32,26.32,0,0,1,7.487,9.7,25.139,25.139,0,0,1,1.308,3.742,25.767,25.767,0,0,1,.785,4.73,26.444,26.444,0,0,1-.084,4.74c-.034.312-.07.595-.1.845-.123.868-.263,1.606-.291,1.746a26.136,26.136,0,0,1-3.525,8.626c-.183.288-.393.616-.631.976a24.346,24.346,0,0,1-2.409,3.1q-.211.227-.436.456a19.16,19.16,0,0,1-2,1.773c-.463.355-.957.7-1.485,1.028q-.631.391-1.269.717c-4.284,2.189-8.9,2.309-15.06,2.467-1.424.036-.984.1-2.734.085-2.409-.021-7.437-.524-10.262-.77a97.279,97.279,0,0,1-16.292-1.542c-1.131-.232-2.226-.5-3.294-.807s-2.128-.661-3.15-1.059a32.015,32.015,0,0,1-9.556-5.8c-.283-.246-.56-.5-.832-.748a37.08,37.08,0,0,1-2.937-3.042A38.04,38.04,0,0,1,2545.144,2656.93Zm6.131,29.968-.446-15.125a38.126,38.126,0,0,0,6.927,3.757Zm77.284,11.07a38.506,38.506,0,0,1-37.312,39.579h0a38.505,38.505,0,0,1-39.579-37.313l-.024-.816,12.438-21.818q1.521.377,3.126.676c7.278,1.353,15.715,1.5,25.484,1.669,1.683.029,3.257.02,4.732-.024,8.879-.261,14.141-1.761,17.6-3.526l13.512,20.756Zm-.393-13.337-7.857-12.069a29.4,29.4,0,0,0,7.145-11.255q.038.462.052.931Z" transform="translate(-2530.206 -2614.687)" fill="url(#linear-gradient-9)"/>
                  <path id="Path_130" data-name="Path 130" d="M2649.818,2663.838l-.542.016c.03.094.058.187.086.281Z" transform="translate(-2582.308 -2636.194)" fill="#c48c2a"/>
                  <path id="Path_131" data-name="Path 131" d="M2629.307,2652.889a25.764,25.764,0,0,0-.785-4.73,25.123,25.123,0,0,0-1.308-3.742,26.319,26.319,0,0,0-7.486-9.7,31.2,31.2,0,0,0-12.179-6.145,40.019,40.019,0,0,0-8.5-1.385c-3.455-.267-9.664.355-15.669,1.455l.038.015-1.19.191c-2.5.4-5.081.819-7.874,1.134a103.409,103.409,0,0,1-32.113-1.606l.274,9.293c.331,5.955,1.868,15.918,7.9,24.7a38.018,38.018,0,0,0,2.542,3.3,37,37,0,0,0,2.937,3.042c.273.252.549.5.833.748a32.009,32.009,0,0,0,9.555,5.8c1.022.4,2.071.748,3.15,1.059s2.163.574,3.294.806a97.249,97.249,0,0,0,16.292,1.542c2.825.246,7.853.749,10.261.77,1.75.015,1.311-.049,2.735-.086,6.161-.158,10.776-.277,15.06-2.467q.639-.327,1.27-.717a18.059,18.059,0,0,0,1.485-1.028,19.134,19.134,0,0,0,2-1.773q.225-.229.436-.456a24.373,24.373,0,0,0,2.409-3.1c.239-.359.448-.687.631-.975a26.13,26.13,0,0,0,3.525-8.626c.028-.139.168-.878.291-1.746.035-.25.071-.533.1-.845A26.441,26.441,0,0,0,2629.307,2652.889Zm-26.326-5.114-.455.3c-.028-.093-.056-.187-.086-.281Z" transform="translate(-2535.471 -2620.131)" fill="url(#linear-gradient-10)"/>
                  <path id="Path_132" data-name="Path 132" d="M2628.1,2743.7a13.277,13.277,0,0,0-12.554,10.327l-4.817.143a13.276,13.276,0,0,0-25.7.784,3.319,3.319,0,1,0,.194,6.583,13.276,13.276,0,0,0,25.7-.731l4.817-.142a13.276,13.276,0,0,0,25.7-.784,3.319,3.319,0,1,0-.194-6.583A13.277,13.277,0,0,0,2628.1,2743.7Zm-29.892,21.956a7.793,7.793,0,1,1,7.56-8.02A7.794,7.794,0,0,1,2598.209,2765.657Zm30.512-.9a7.793,7.793,0,1,1,7.56-8.019A7.792,7.792,0,0,1,2628.721,2764.757Z" transform="translate(-2552.604 -2671.138)" fill="url(#linear-gradient-11)"/>
                </g>
              </g>
              <g id="Group_121" data-name="Group 121" transform="translate(892 1756)">
                <g id="Group_109" data-name="Group 109" transform="translate(0 231.492)">
                  <rect id="Rectangle_22" data-name="Rectangle 22" width="238" height="6.508" rx="3.254" fill="url(#linear-gradient)"/>
                </g>
                <path id="Path_106" data-name="Path 106" d="M3042.4,2996.906h73.943a12.937,12.937,0,0,1,12.923,12.923v36.665a22.907,22.907,0,0,0,12.252-20.258v-32.494a26.286,26.286,0,0,0-26.256-26.256h-71.781a26.285,26.285,0,0,0-26.255,26.256v32.494a22.906,22.906,0,0,0,12.252,20.258v-36.665A12.937,12.937,0,0,1,3042.4,2996.906Z" transform="translate(-2948.936 -2829.195)" fill="url(#linear-gradient-13)"/>
                <path id="Path_107" data-name="Path 107" d="M3110.488,2956.479h-71.782a32.527,32.527,0,0,0-32.49,32.49v32.494a29.164,29.164,0,0,0,18.488,27.1v-6.845a22.907,22.907,0,0,1-12.252-20.258v-32.494a26.285,26.285,0,0,1,26.255-26.256h71.782a26.286,26.286,0,0,1,26.256,26.256v32.494a22.908,22.908,0,0,1-12.252,20.258v6.845a29.163,29.163,0,0,0,18.487-27.1v-32.494A32.527,32.527,0,0,0,3110.488,2956.479Z" transform="translate(-2944.187 -2824.421)" fill="url(#linear-gradient-3)"/>
                <path id="Path_108" data-name="Path 108" d="M3130.707,3030.922h-73.943a6.422,6.422,0,0,0-6.415,6.415v44a6.426,6.426,0,0,0,6.415,6.415h73.943a6.425,6.425,0,0,0,6.416-6.415v-44A6.423,6.423,0,0,0,3130.707,3030.922Z" transform="translate(-2963.25 -2856.703)" fill="#ddd"/>
                <path id="Path_109" data-name="Path 109" d="M3125.724,3019.432h-73.943a12.937,12.937,0,0,0-12.923,12.923v44a12.937,12.937,0,0,0,12.923,12.922h73.943a12.937,12.937,0,0,0,12.923-12.922v-44A12.937,12.937,0,0,0,3125.724,3019.432Zm0,63.341h-73.943a6.424,6.424,0,0,1-6.415-6.415v-44a6.422,6.422,0,0,1,6.415-6.415h73.943a6.423,6.423,0,0,1,6.416,6.415v44a6.424,6.424,0,0,1-6.416,6.415Z" transform="translate(-2958.281 -2851.72)" fill="url(#linear-gradient-3)"/>
                <g id="Group_110" data-name="Group 110" transform="translate(112.499 105.473)">
                  <path id="Path_110" data-name="Path 110" d="M3103.195,2911.8v23.191l10.6,11.062h5.3l7.009-3.567,4-30.686Z" transform="translate(-3098.614 -2907.46)" fill="#e0e0e0"/>
                  <path id="Path_111" data-name="Path 111" d="M3121.869,2904.135h-19.523a7.246,7.246,0,0,0-7.238,7.238v17.3a17,17,0,0,0,34,0v-17.3A7.246,7.246,0,0,0,3121.869,2904.135Zm-9.761,35.027a10.508,10.508,0,0,1-10.493-10.492v-17.3a.732.732,0,0,1,.731-.731h19.523a.731.731,0,0,1,.731.731v17.3a10.508,10.508,0,0,1-10.492,10.492Z" transform="translate(-3095.107 -2904.135)" fill="url(#linear-gradient-3)"/>
                </g>
                <path id="Path_112" data-name="Path 112" d="M3057.557,2798.243l-3,21.758,2.149,23,13.738,17.942,24.344,7.748,19.715-4.288,18.6-18.956,1.991-17.642v-21.708l-9.645-14.359-37.406-18.589Z" transform="translate(-2965.061 -2738.312)" fill="#e0e0e0"/>
                <path id="Path_113" data-name="Path 113" d="M3059.05,2835.305q.014.494.066.98a32.866,32.866,0,0,1,10.766-11.951l-11.528-12.617Z" transform="translate(-2966.374 -2756.741)" fill="url(#linear-gradient-17)"/>
                <path id="Path_114" data-name="Path 114" d="M3184.152,2818.441q-.014-.494-.066-.981a32.86,32.86,0,0,1-10.766,11.952l11.528,12.617Z" transform="translate(-3016.81 -2759.328)" fill="url(#linear-gradient-18)"/>
                <g id="Group_111" data-name="Group 111" transform="translate(86.177 30.977)">
                  <path id="Path_115" data-name="Path 115" d="M3092.252,2867.76a43.6,43.6,0,0,1-43.549-43.548v-14.327a43.548,43.548,0,1,1,87.1,0v14.327A43.6,43.6,0,0,1,3092.252,2867.76Zm0-95.11a37.277,37.277,0,0,0-37.235,37.235v14.327a37.234,37.234,0,1,0,74.469,0v-14.327A37.277,37.277,0,0,0,3092.252,2772.651Z" transform="translate(-3048.703 -2766.337)" fill="url(#linear-gradient)"/>
                </g>
                <g id="Group_112" data-name="Group 112" transform="translate(86.633 34.396)">
                  <path id="Path_116" data-name="Path 116" d="M3051.991,2830.968a2.982,2.982,0,0,1-2.543-4.535l32.094-52.629a2.982,2.982,0,1,1,5.091,3.105l-32.093,52.629A2.978,2.978,0,0,1,3051.991,2830.968Z" transform="translate(-3049.011 -2772.374)" fill="url(#linear-gradient)"/>
                </g>
                <g id="Group_113" data-name="Group 113" transform="translate(134.83 36.095)">
                  <path id="Path_117" data-name="Path 117" d="M3170.06,2833.968a2.979,2.979,0,0,1-2.549-1.43l-32.093-52.629a2.982,2.982,0,0,1,5.092-3.1l32.093,52.629a2.982,2.982,0,0,1-2.543,4.535Z" transform="translate(-3134.982 -2775.374)" fill="url(#linear-gradient-3)"/>
                </g>
                <path id="Path_118" data-name="Path 118" d="M3101.863,2716.12l-27.729,17.535-16.576,19.166-3,11.417,3,9.277,10.68,7.85,25.674-1.859,7.952,1.859h13.865l16.926-6.87,2.444-12.3v-10.6l-4.486-11.417-11.474-10.6Z" transform="translate(-2965.061 -2713.583)" fill="url(#linear-gradient-22)"/>
                <g id="Group_119" data-name="Group 119" transform="translate(86.71)">
                  <g id="Group_118" data-name="Group 118" transform="translate(0)">
                    <path id="Path_135" data-name="Path 135" d="M3110.17,2783.655a70.787,70.787,0,0,1-21.856-3.989c-1.591.5-3.293.938-5.115,1.318-13.652,2.845-25.8-.569-30.948-8.7-2.767-4.367-5.775-13.855,5.158-28.334,17.873-23.671,40.72-31.809,41.685-32.144a3.055,3.055,0,0,1,2.48.213c1.619.9,39.584,22.251,35.16,50.812-1.23,7.939-4.9,13.723-10.9,17.19C3121.153,2782.729,3115.592,2783.655,3110.17,2783.655Zm-13.065-7.8c7.288,1.738,18.233,3.184,25.684-1.125,4.378-2.533,6.966-6.729,7.91-12.831,3.378-21.806-24.636-40.056-30.87-43.823a94.814,94.814,0,0,0-37.546,29.557c-6.459,8.554-8.19,16.149-4.872,21.384,3.715,5.865,13.578,8.27,24.542,5.986a47.568,47.568,0,0,0,5.34-1.428c.069-.026.138-.049.208-.071,15.1-5.121,17.074-15.415,17.158-15.9a3.054,3.054,0,0,1,6.03.97C3110.606,2759.117,3108.906,2768.975,3097.1,2775.856Z" transform="translate(-3049.66 -2711.641)" fill="url(#linear-gradient-3)"/>
                  </g>
                </g>
                <circle id="Ellipse_13" data-name="Ellipse 13" cx="4.99" cy="4.99" r="4.99" transform="translate(111.595 82.12)" fill="url(#linear-gradient-3)"/>
                <circle id="Ellipse_14" data-name="Ellipse 14" cx="4.99" cy="4.99" r="4.99" transform="translate(139.379 82.12)" fill="url(#linear-gradient-3)"/>
              </g>
              <g id="Group_122" data-name="Group 122" transform="translate(820 1772) rotate(90)">
                <rect id="Rectangle_22-2" data-name="Rectangle 22" width="180" height="8" rx="4" transform="translate(42 0)" fill="url(#linear-gradient)"/>
              </g>
            </g>
            <g id="apple" transform="translate(588.971 1866)">
              <path id="Path_137" data-name="Path 137" d="M48.524,4.559A5.745,5.745,0,0,0,50.25,0a7.891,7.891,0,0,0-4.885,2.163A5.507,5.507,0,0,0,43.6,6.583,6.585,6.585,0,0,0,48.524,4.559Zm3.551,11.554a6.706,6.706,0,0,1,3.181-5.639,6.866,6.866,0,0,0-5.389-2.935C47.57,7.3,45.389,8.9,44.223,8.9s-2.957-1.326-4.862-1.29a7.206,7.206,0,0,0-6.1,3.716c-2.6,4.534-.667,11.251,1.868,14.929,1.239,1.8,2.714,3.82,4.652,3.747,1.87-.073,2.575-1.213,4.831-1.213S47.5,30,49.478,29.962c2.009-.037,3.281-1.835,4.509-3.641a16.362,16.362,0,0,0,2.041-4.212A6.548,6.548,0,0,1,52.075,16.114Z" transform="translate(0)" fill="#c3c5c6"/>
            </g>
            <g id="apple-2" data-name="apple" transform="translate(981.971 1866)">
              <path id="Path_137-2" data-name="Path 137" d="M48.524,4.559A5.745,5.745,0,0,0,50.25,0a7.891,7.891,0,0,0-4.885,2.163A5.507,5.507,0,0,0,43.6,6.583,6.585,6.585,0,0,0,48.524,4.559Zm3.551,11.554a6.706,6.706,0,0,1,3.181-5.639,6.866,6.866,0,0,0-5.389-2.935C47.57,7.3,45.389,8.9,44.223,8.9s-2.957-1.326-4.862-1.29a7.206,7.206,0,0,0-6.1,3.716c-2.6,4.534-.667,11.251,1.868,14.929,1.239,1.8,2.714,3.82,4.652,3.747,1.87-.073,2.575-1.213,4.831-1.213S47.5,30,49.478,29.962c2.009-.037,3.281-1.835,4.509-3.641a16.362,16.362,0,0,0,2.041-4.212A6.548,6.548,0,0,1,52.075,16.114Z" transform="translate(0)" fill="#c3c5c6"/>
            </g>
            <g id="Group_126" data-name="Group 126" transform="translate(808 1666)">
              <circle id="Ellipse_15" data-name="Ellipse 15" cx="7.211" cy="7.211" r="7.211" transform="translate(122.579 117.532)" fill="url(#linear-gradient-27)"/>
              <circle id="Ellipse_16" data-name="Ellipse 16" cx="10.095" cy="10.095" r="10.095" transform="translate(90.853 97.342)" fill="url(#linear-gradient-27)"/>
              <g id="Group_124" data-name="Group 124" transform="translate(0 0)">
                <path id="Path_75" data-name="Path 75" d="M2464.992,332.089h-78.82a13.778,13.778,0,0,0-13.778,13.778v41.106a13.778,13.778,0,0,0,13.778,13.778h56.214l6.58,20.489a3.3,3.3,0,0,0,6.285,0l6.581-20.489h3.16a13.778,13.778,0,0,0,13.779-13.778V345.867A13.778,13.778,0,0,0,2464.992,332.089Z" transform="translate(-2375.109 -336.756)" fill="url(#linear-gradient-29)"/>
                <rect id="Rectangle_15" data-name="Rectangle 15" width="78.884" height="3.747" rx="1.873" transform="translate(11 12.572)" fill="#e0e0e0"/>
                <rect id="Rectangle_25" data-name="Rectangle 25" width="39.319" height="3.747" rx="1.873" transform="translate(50.597 26.594)" fill="#e0e0e0"/>
              </g>
            </g>
          </g>
        </g>
      </g>
    </g>
  </g>
</svg>
